<?xml version="1.0" encoding="UTF-8" standalone="no"?>
<!-- Created with Inkscape (http://www.inkscape.org/) -->

<svg
   xmlns:dc="http://purl.org/dc/elements/1.1/"
   xmlns:cc="http://creativecommons.org/ns#"
   xmlns:rdf="http://www.w3.org/1999/02/22-rdf-syntax-ns#"
   xmlns:svg="http://www.w3.org/2000/svg"
   xmlns="http://www.w3.org/2000/svg"
   xmlns:sodipodi="http://sodipodi.sourceforge.net/DTD/sodipodi-0.dtd"
   xmlns:inkscape="http://www.inkscape.org/namespaces/inkscape"
   width="379.16043"
   height="112.67629"
   id="svg2"
   version="1.1"
   inkscape:version="0.48.2 r9819"
   sodipodi:docname="jacks-logo.svg">
  <defs
     id="defs4" />
  <sodipodi:namedview
     id="base"
     pagecolor="#0d00f4"
     bordercolor="#666666"
     borderopacity="1.0"
     inkscape:pageopacity="1"
     inkscape:pageshadow="2"
     inkscape:zoom="1.4"
     inkscape:cx="134.79339"
     inkscape:cy="86.241887"
     inkscape:document-units="px"
     inkscape:current-layer="layer1"
     showgrid="false"
     inkscape:window-width="1213"
     inkscape:window-height="710"
     inkscape:window-x="24"
     inkscape:window-y="22"
     inkscape:window-maximized="0"
     fit-margin-top="0"
     fit-margin-left="0"
     fit-margin-right="0"
     fit-margin-bottom="0" />
  <metadata
     id="metadata7">
    <rdf:RDF>
      <cc:Work
         rdf:about="">
        <dc:format>image/svg+xml</dc:format>
        <dc:type
           rdf:resource="http://purl.org/dc/dcmitype/StillImage" />
        <dc:title />
      </cc:Work>
    </rdf:RDF>
  </metadata>
  <g
     inkscape:label="Layer 1"
     inkscape:groupmode="layer"
     id="layer1"
     transform="translate(-160.41158,-238.20019)">
    <text
       xml:space="preserve"
       style="font-size:128px;font-style:normal;font-variant:normal;font-weight:normal;font-stretch:normal;line-height:125%;letter-spacing:0px;word-spacing:0px;fill:#000000;fill-opacity:1;stroke:none;font-family:Gist;-inkscape-font-specification:Gist"
       x="211.42857"
       y="380.93362"
       id="text2985"
       sodipodi:linespacing="125%"><tspan
         sodipodi:role="line"
         id="tspan2987"
         x="211.42857"
         y="380.93362" /></text>
    <g
       style="font-size:10px;font-style:normal;font-variant:normal;font-weight:normal;font-stretch:normal;line-height:125%;letter-spacing:0px;word-spacing:0px;fill:#ffffff;fill-opacity:1;stroke:none;font-family:Gist;-inkscape-font-specification:Gist"
       id="text2989">
      <path
         d="m 188.416,350.87648 c 26.36797,0 34.816,-25.34402 37.504,-40.064 l 12.672,-72.576 -44.928,0 -0.896,4.864 39.936,0 -11.648,66.688 c -2.56,14.20798 -10.11202,36.224 -32.64,36.224 -20.35198,0 -26.112,-16.38402 -21.888,-28.928 l -4.608,-1.536 c -4.992,14.59198 2.04802,35.328 26.496,35.328 m 3.2,-101.12 33.28,0 -10.368,59.008 c -2.432,13.18398 -8.70402,30.592 -26.112,30.592 -14.46399,0 -18.688,-10.88001 -15.488,-20.096 l -4.608,-1.536 c -3.968,11.51999 1.53602,26.496 20.096,26.496 21.24798,0 28.288,-20.73602 30.848,-34.688 l 11.392,-64.64 -38.144,0 -0.896,4.864"
         style="font-size:128px;fill:#ffffff"
         id="path3059"
         inkscape:connector-curvature="0" />
      <path
         d="m 272.134,297.62848 c -18.68798,0 -24.96,9.60001 -24.96,18.304 0,8.44799 5.76001,16.768 19.456,16.768 8.83199,0 18.43201,-3.58401 26.496,-9.6 l 3.712,-21.12 c -9.98399,-3.072 -18.17601,-4.352 -24.704,-4.352 m 39.168,35.584 -19.968,0 1.28,-7.68 c -7.93599,5.50399 -17.28001,8.96 -25.984,8.96 -14.59199,0 -21.248,-9.60001 -21.248,-18.56 0,-9.21599 7.04002,-20.096 26.752,-20.096 6.78399,0 15.10401,1.28 24.96,4.352 l 1.28,-7.04 c 2.688,-14.97599 -8.06401,-18.816 -19.712,-18.816 -9.98399,0 -20.352,2.816 -24.448,4.608 l 2.048,4.608 c 3.712,-1.792 13.05601,-4.352 22.4,-4.352 7.03999,0 17.024,1.79201 15.104,12.16 l -0.512,2.688 c -8.06399,-2.176 -15.23201,-3.2 -21.12,-3.2 -23.03998,0 -31.744,13.44001 -31.744,25.088 0,11.26399 8.57602,23.424 26.24,23.424 6.14399,0 12.92801,-1.53601 19.2,-4.352 l -0.512,3.072 25.088,0 0.896,-4.864 m -44.672,-5.376 c -10.62399,0 -14.592,-5.76001 -14.592,-11.904 0,-6.272 4.99202,-13.44 20.096,-13.44 5.24799,0 11.52001,0.896 19.072,2.944 l -2.688,14.848 c -7.03999,4.86399 -14.72001,7.552 -21.888,7.552 m 45.824,-1.28 -13.184,0 5.76,-32.384 c 3.584,-20.35198 -11.26402,-26.496 -26.368,-26.496 -10.87999,0 -22.656,3.072 -27.136,5.248 l 1.92,4.48 c 4.352,-2.048 14.97601,-4.864 25.216,-4.864 11.90399,0 24.448,4.35201 21.504,20.864 l -6.784,38.016 18.304,0 0.768,-4.864"
         style="font-size:128px;fill:#ffffff"
         id="path3061"
         inkscape:connector-curvature="0" />
      <path
         d="m 377.544,273.30848 c -5.37599,-3.712 -12.28801,-5.632 -18.816,-5.632 -20.73598,0 -38.656,17.02402 -38.656,38.144 0,18.43198 13.95202,33.536 34.048,33.536 8.95999,0 20.09601,-3.45601 29.44,-10.24 l -2.816,-3.84 c -8.83199,6.27199 -18.43201,9.216 -26.624,9.216 -17.15198,0 -29.184,-12.92802 -29.184,-28.672 0,-18.17598 15.87202,-33.28 33.792,-33.28 9.08799,0 18.688,4.608 21.888,11.904 l 2.688,-15.488 -4.992,0 -0.768,4.352 m 0.128,28.032 2.176,-12.416 c -0.384,-8.83199 -10.88001,-14.592 -21.12,-14.592 -17.15198,0 -32,14.08001 -32,31.488 0,14.97598 11.00802,26.88 27.392,26.88 7.93599,0 16.89601,-2.68801 25.472,-8.96 l -2.816,-3.968 c -7.80799,5.63199 -15.61601,8.064 -22.656,8.064 -13.43999,0 -22.528,-9.72802 -22.528,-22.016 0,-14.46399 12.67201,-26.624 27.136,-26.624 7.93599,0 15.36,4.224 16,9.472 l -2.176,12.672 5.12,0 m 6.784,0 5.632,-32.384 -4.992,0 -5.632,32.384 4.992,0"
         style="font-size:128px;fill:#ffffff"
         id="path3063"
         inkscape:connector-curvature="0" />
      <path
         d="m 468.898,326.55648 -16.896,0 -7.296,-12.544 c 16.89598,-6.272 24.32,-16.38401 24.32,-26.88 0,-10.87999 -8.57601,-19.584 -20.992,-19.584 -6.91199,0 -15.10401,2.304 -23.808,7.808 l 6.68286,-37.15629 -25.088,0 -0.768,4.864 20.096,0 -7.96286,43.81229 c 11.51999,-10.36799 22.40001,-14.464 30.848,-14.464 9.59999,0 16.128,6.65601 16.128,14.72 0,9.08799 -7.80802,18.688 -26.496,24.192 l 11.52,20.096 18.816,0 0.896,-4.864 m -42.112,0 -11.52,0 6.016,-34.304 c 10.36799,-9.59999 19.71201,-13.184 26.752,-13.184 5.88799,0 9.472,3.712 9.472,8.064 0,6.14399 -6.14402,13.44 -22.912,17.92 l 1.408,4.736 c 19.07198,-5.12 26.368,-14.08001 26.368,-22.656 0,-7.296 -5.50401,-12.928 -14.336,-12.928 -8.57599,0 -19.45601,4.22401 -31.36,15.616 l -7.296,41.6 16.512,0 0.896,-4.864 m -9.57314,-76.83629 -13.85086,76.83629 -13.184,0 -0.768,4.864 18.176,0 15.51486,-86.56429 -18.432,0 -0.896,4.864 13.44,0 m 18.27714,61.34829 -4.224,2.56 14.08,24.448 21.504,0 0.768,-4.864 -19.456,0 -12.672,-22.144 m -47.36,27.008 36.48,0 0.896,-4.864 -36.48,0 -0.896,4.864"
         style="font-size:128px;fill:#ffffff"
         id="path3065"
         inkscape:connector-curvature="0"
         sodipodi:nodetypes="cccssccccccsscccccccssccssccccccccccccccccccccccccc" />
      <path
         d="m 515.38,332.57248 c 9.72799,0 17.536,-7.68001 17.536,-17.408 0,-14.07999 -13.31201,-23.93601 -20.736,-34.56 l -25.984,36.736 c 10.36799,9.85599 19.45601,15.232 29.184,15.232 m 12.672,-17.408 c 0,6.91199 -5.63201,12.544 -12.672,12.544 -7.29599,0 -14.33601,-3.58401 -22.784,-11.008 l 19.712,-27.904 c 7.29599,8.83199 15.744,16.64001 15.744,26.368 m -14.336,-35.584 c 7.16799,10.36799 20.992,20.60801 20.992,35.584 0,10.49599 -8.83201,19.2 -19.328,19.2 -10.11199,0 -19.71201,-5.63201 -30.336,-15.488 l -10.112,14.336 -13.056,0 -0.896,4.864 16.384,0 8.448,-12.032 c 9.59999,8.19199 19.45601,13.184 29.568,13.184 13.31199,0 24.192,-10.62402 24.192,-24.064 0,-17.27999 -15.23201,-28.80001 -21.888,-38.4 -3.584,-4.992 -3.19999,-8.83201 2.56,-13.568 l -3.2,-3.712 c -7.93599,6.39999 -8.192,13.184 -3.328,20.096 m -8.32,-1.024 -34.048,48 -8.32,0 -0.768,4.864 11.648,0 37.12,-52.48 c -3.968,-6.912 -3.07199,-14.46401 4.992,-20.864 l -3.072,-3.84 c -9.08799,7.29599 -10.88,16.25601 -7.552,24.32"
         style="font-size:128px;fill:#ffffff"
         id="path3067"
         inkscape:connector-curvature="0" />
    </g>
    <g
       style="font-size:10px;font-style:normal;font-variant:normal;font-weight:normal;font-stretch:normal;line-height:125%;letter-spacing:0px;word-spacing:0px;fill:#ffffff;fill-opacity:1;stroke:none;font-family:Gist;-inkscape-font-specification:Gist"
       id="text3039" />
    <g
       id="g3054"
       style="font-size:10px;font-style:normal;font-variant:normal;font-weight:normal;font-stretch:normal;line-height:125%;letter-spacing:0px;word-spacing:0px;fill:#b5b5b5;fill-opacity:0.73333333;stroke:none;font-family:Gist;-inkscape-font-specification:Gist"
       transform="translate(153.89576,-63.654369)">
      <path
         sodipodi:nodetypes="ccccccccc"
         inkscape:connector-curvature="0"
         id="path3056"
         style="font-size:128px;fill:#b5b5b5;fill-opacity:0.73333333"
         d="m 248.68417,301.87609 -160.58111,0 -0.896,4.864 160.47114,0 m -161.62314,6.656 160.45096,0 0.93858,-4.864 -160.49354,0 -0.896,4.864" />
    </g>
    <g
       id="g3837"
       style="font-size:10px;font-style:normal;font-variant:normal;font-weight:normal;font-stretch:normal;line-height:125%;letter-spacing:0px;word-spacing:0px;fill:#b5b5b5;fill-opacity:0.73333333;stroke:none;font-family:Gist;-inkscape-font-specification:Gist"
       transform="translate(345.89286,-63.571429)">
      <path
         sodipodi:nodetypes="ccccccccc"
         inkscape:connector-curvature="0"
         id="path3839"
         style="font-size:128px;fill:#b5b5b5;fill-opacity:0.73333333"
         d="m 158.56677,301.87609 -70.46371,0 -0.896,4.864 65.47171,0 m -66.62371,6.656 58.81571,0 5.76,-4.864 -63.67971,0 -0.896,4.864" />
    </g>
  </g>
</svg>
